<!DOCTYPE svg PUBLIC "-//W3C//DTD SVG 1.1//EN" "http://www.w3.org/Graphics/SVG/1.1/DTD/svg11.dtd">

<!-- Uploaded to: SVG Repo, www.svgrepo.com, Transformed by: SVG Repo Mixer Tools -->
<svg fill="white" height="197px" width="197px" version="1.1" id="Capa_1" xmlns="http://www.w3.org/2000/svg" xmlns:xlink="http://www.w3.org/1999/xlink" viewBox="-31.47 -31.47 248.05 248.05" xml:space="preserve">

<g id="SVGRepo_bgCarrier" stroke-width="0">

<rect x="-31.47" y="-31.47" width="250" height="250" rx="124.025" fill="#5294E2" strokewidth="0"/>

</g>

<g id="SVGRepo_tracerCarrier" stroke-linecap="round" stroke-linejoin="round"/>

<g id="SVGRepo_iconCarrier"> <g> <path d="M29.026,185.112h127.061c4.143,0,7.5-3.357,7.5-7.5V7.5c0-4.142-3.357-7.5-7.5-7.5H29.026c-4.143,0-7.5,3.358-7.5,7.5 v170.112C21.526,181.755,24.883,185.112,29.026,185.112z M36.526,15h112.061v155.112H36.526V15z"/> <path d="M71.241,41.047h44.721c4.143,0,7.5-3.357,7.5-7.5s-3.357-7.5-7.5-7.5H71.241c-4.143,0-7.5,3.357-7.5,7.5 S67.098,41.047,71.241,41.047z"/> <path d="M131.087,51.047H54.026c-4.143,0-7.5,3.357-7.5,7.5v94.065c0,4.143,3.357,7.5,7.5,7.5h77.061c4.143,0,7.5-3.357,7.5-7.5 V58.547C138.587,54.404,135.229,51.047,131.087,51.047z M123.587,145.112H61.526V66.047h62.061V145.112z"/> </g> </g>

</svg>